<svg xmlns="http://www.w3.org/2000/svg" viewBox="0 0 800 1000" role="img" aria-labelledby="t d"><title id="t">Автор блога</title><desc id="d">Стилизованный портрет автора музыкального блога у фортепиано</desc>
  <rect width="800" height="1000" fill="#d8cfc0"/><path d="M0 700h800v300H0z" fill="#69715f"/><circle cx="400" cy="355" r="180" fill="#eee5d8"/><path d="M285 360c0-140 225-165 243-20 6 48-6 140-19 186H303c-10-65-18-116-18-166z" fill="#493832"/>
  <ellipse cx="407" cy="410" rx="112" ry="142" fill="#c9997d"/><path d="M300 375c42-12 75-64 91-107 50 73 93 89 130 93-12-112-185-147-221 14z" fill="#493832"/>
  <path d="M282 742c8-135 68-222 126-222s130 88 137 222z" fill="#6e2636"/><path d="M352 545c20 38 88 38 108 0" fill="none" stroke="#f0d0bf" stroke-width="7"/>
  <path d="M70 760h650v135H70z" fill="#2d2926"/><path d="M105 780h580v85H105z" fill="#f5efe6"/><g fill="#2d2926"><path d="M150 780h25v50h-25zM220 780h25v50h-25zM315 780h25v50h-25zM385 780h25v50h-25zM455 780h25v50h-25zM550 780h25v50h-25zM620 780h25v50h-25z"/></g>
  <text x="72" y="122" fill="#766d64" font-family="Arial,sans-serif" font-size="11" letter-spacing="5">AUTHOR &amp; AMATEUR PIANIST</text>
</svg>
